<svg width="540" height="90" viewBox="0 0 540 90" fill="none" xmlns="http://www.w3.org/2000/svg">
<path d="M161.652 35.9324H167.486V58.5739H199.376V35.9324H205.144V88.0814H199.376V63.9865H167.486V88.0806H161.652V35.9324Z" fill="white"/>
<path d="M212.175 70.8516C212.175 60.2237 219.335 52.6984 229.412 52.6984C239.49 52.6984 246.65 60.2237 246.65 70.8516C246.65 81.5451 239.491 89.1367 229.412 89.1367C219.335 89.1367 212.175 81.5459 212.175 70.8516ZM240.883 70.8516C240.883 63.0627 236.109 57.5837 229.413 57.5837C222.717 57.5837 218.01 63.0627 218.01 70.8516C218.01 78.7069 222.717 84.2522 229.413 84.2522C236.108 84.2522 240.883 78.7069 240.883 70.8516Z" fill="white"/>
<path d="M252.882 53.7547H258.584V59.96C261.037 55.6028 265.148 52.6984 270.85 52.6984C276.949 52.6984 280.862 55.3392 282.519 60.5537C285.303 55.7347 289.944 52.6984 295.778 52.6984C304.066 52.6984 308.376 57.7155 308.376 67.2209V88.0803H302.674V67.4189C302.674 61.4118 299.691 57.5837 294.453 57.5837C287.889 57.5837 283.447 63.3926 283.447 71.3797V88.0803H277.745V67.4189C277.745 61.4118 274.828 57.5837 269.591 57.5837C262.961 57.5837 258.585 63.3926 258.585 71.3797V88.0803H252.882V53.7547H252.882Z" fill="white"/>
<path d="M314.753 70.8516C314.753 60.2237 321.912 52.6984 332.123 52.6984C340.212 52.6984 347.372 58.7055 347.372 70.2572V72.7653H320.653C321.118 79.6306 325.295 84.3833 331.991 84.3833C337.095 84.3833 340.543 81.347 341.273 78.4424H346.908C345.847 84.1851 340.08 89.1359 332.123 89.1359C321.913 89.1367 314.753 81.5459 314.753 70.8516ZM341.67 68.1453C341.405 61.8082 337.361 57.5837 331.924 57.5837C325.559 57.5837 321.581 61.7426 320.719 68.1453H341.67Z" fill="white"/>
<path d="M359.956 82.4043V88.0814H354.253V35.9324H359.956V59.4321C362.409 55.2076 366.387 52.6986 371.36 52.6986C380.443 52.6986 386.94 60.2239 386.94 70.7856C386.94 81.5453 380.443 89.1369 371.36 89.1369C366.387 89.2033 362.409 86.6288 359.956 82.4043ZM381.237 70.8519C381.237 63.0629 376.796 57.5839 370.431 57.5839C364.133 57.5839 359.624 63.0629 359.624 70.8519C359.624 78.7072 364.133 84.2525 370.431 84.2525C376.796 84.2525 381.237 78.7072 381.237 70.8519Z" fill="white"/>
<path d="M391.716 70.8516C391.716 60.2237 398.876 52.6984 408.954 52.6984C419.031 52.6984 426.191 60.2237 426.191 70.8516C426.191 81.5451 419.032 89.1367 408.954 89.1367C398.876 89.1367 391.716 81.5459 391.716 70.8516ZM420.423 70.8516C420.423 63.0627 415.65 57.5837 408.954 57.5837C402.258 57.5837 397.55 63.0627 397.55 70.8516C397.55 78.7069 402.258 84.2522 408.954 84.2522C415.65 84.2522 420.423 78.7069 420.423 70.8516Z" fill="white"/>
<path d="M462.023 88.0813H456.321V81.876C453.868 86.2331 449.757 89.1369 444.055 89.1369C435.768 89.1369 431.458 84.1197 431.458 74.6144V53.7556H437.16V74.417C437.16 80.4242 440.077 84.2523 445.381 84.2523C451.945 84.2523 456.32 78.4433 456.32 70.4562V53.7556H462.022V88.0813H462.023Z" fill="white"/>
<path d="M470.243 53.7547H475.946V59.96C478.399 55.6028 482.51 52.6984 488.211 52.6984C496.565 52.6984 500.808 57.7155 500.808 67.2209V88.0803H495.107V67.4189C495.107 61.4118 492.189 57.5837 486.952 57.5837C480.323 57.5837 475.947 63.3926 475.947 71.3797V88.0803H470.244V53.7547H470.243Z" fill="white"/>
<path d="M507.105 70.7863C507.105 60.2247 513.602 52.6994 522.686 52.6994C527.657 52.6994 531.636 55.2076 534.09 59.4329V35.9324H539.791V88.0814H534.09V82.4043C531.636 86.6287 527.658 89.2033 522.686 89.1377C513.602 89.1369 507.105 81.5461 507.105 70.7863ZM534.421 70.8518C534.421 63.0628 529.912 57.5839 523.614 57.5839C517.249 57.5839 512.807 63.0628 512.807 70.8518C512.807 78.7071 517.249 84.2524 523.614 84.2524C529.912 84.2524 534.421 78.7071 534.421 70.8518Z" fill="white"/>
<path d="M143.568 88.0536H1.46733L1.25244 35.9568L70.3401 0.207703L131.499 35.011L128.745 39.8095L70.2141 6.50142L6.81641 39.3057L6.99482 82.5273H143.568V88.0536Z" fill="white"/>
</svg>
