<svg width="44" height="41" viewBox="0 0 44 41" fill="none" xmlns="http://www.w3.org/2000/svg">
<g clip-path="url(#clip0)">
<path d="M22.1504 13.8449V7.6835" stroke="#242528" stroke-width="1.5" stroke-miterlimit="10"/>
<path d="M36.9529 34.7336L32.6699 31.8783" stroke="#242528" stroke-width="1.5" stroke-miterlimit="10"/>
<path d="M7.12256 34.8839L11.7812 31.8783" stroke="#242528" stroke-width="1.5" stroke-miterlimit="10"/>
<path d="M22.2254 37.9646C28.8651 37.9646 34.2477 32.5821 34.2477 25.9423C34.2477 19.3026 28.8651 13.92 22.2254 13.92C15.5857 13.92 10.2031 19.3026 10.2031 25.9423C10.2031 32.5821 15.5857 37.9646 22.2254 37.9646Z" fill="#F9F8F7" stroke="#242528" stroke-width="1.5" stroke-miterlimit="10"/>
<path d="M22.1503 7.68349C24.0177 7.68349 25.5316 6.16965 25.5316 4.30223C25.5316 2.4348 24.0177 0.920959 22.1503 0.920959C20.2829 0.920959 18.769 2.4348 18.769 4.30223C18.769 6.16965 20.2829 7.68349 22.1503 7.68349Z" stroke="#242528" stroke-width="1.5" stroke-miterlimit="10"/>
<path d="M39.6579 40.0685C41.5253 40.0685 43.0391 38.5547 43.0391 36.6872C43.0391 34.8198 41.5253 33.306 39.6579 33.306C37.7905 33.306 36.2766 34.8198 36.2766 36.6872C36.2766 38.5547 37.7905 40.0685 39.6579 40.0685Z" stroke="#242528" stroke-width="1.5" stroke-miterlimit="10"/>
<path d="M4.34245 40.0685C6.20987 40.0685 7.72372 38.5547 7.72372 36.6872C7.72372 34.8198 6.20987 33.306 4.34245 33.306C2.47503 33.306 0.961182 34.8198 0.961182 36.6872C0.961182 38.5547 2.47503 40.0685 4.34245 40.0685Z" stroke="#242528" stroke-width="1.5" stroke-miterlimit="10"/>
</g>
<defs>
<clipPath id="clip0">
<rect width="44" height="40.9895" fill="white"/>
</clipPath>
</defs>
</svg>
