<svg width="40" height="40" viewBox="0 0 40 40" fill="none" xmlns="http://www.w3.org/2000/svg">
<path d="M20 39C30.4934 39 39 30.4934 39 20C39 9.50659 30.4934 1 20 1C9.50659 1 1 9.50659 1 20C1 30.4934 9.50659 39 20 39Z" fill="#F9F8F7" stroke="#242528" stroke-width="1.5" stroke-miterlimit="10"/>
<path d="M19.9585 8.9441V31.0559" stroke="#242528" stroke-width="1.5" stroke-miterlimit="10"/>
<path d="M14.2443 23.1884C14.2443 23.1884 14.0787 28.2402 20.2899 28.2402C26.0042 28.2402 25.8385 24.7619 25.8385 24.265C25.8385 23.6853 26.0042 21.4493 20.2071 20.0414C14.3271 18.6335 14.5756 16.3975 14.5756 15.8178C14.5756 15.2381 14.3271 11.8427 20.1242 11.8427C25.9213 11.8427 25.9213 15.8178 25.9213 15.8178" stroke="#242528" stroke-width="1.5" stroke-miterlimit="10"/>
</svg>
