<svg width="28" height="26" viewBox="0 0 28 26" fill="none" xmlns="http://www.w3.org/2000/svg">
<g opacity="0.15">
<path d="M22.3058 25.8137C25.4505 25.8137 27.9998 23.2644 27.9998 20.1198C27.9998 16.9751 25.4505 14.4258 22.3058 14.4258C19.1611 14.4258 16.6118 16.9751 16.6118 20.1198C16.6118 23.2644 19.1611 25.8137 22.3058 25.8137Z" fill="white"/>
<path fill-rule="evenodd" clip-rule="evenodd" d="M10.7406 13.3303C11.4949 11.9697 14.9556 11.5704 16.4494 10.8605C18.4312 9.97308 19.7918 7.99129 19.8066 5.69891C19.57 -1.75502 8.95108 -1.96207 8.41865 5.46228C8.25597 7.39971 10.0307 10.8161 9.09897 12.4134C8.89192 12.7535 8.4926 13.2268 7.20591 13.7C5.78612 14.2325 4.02616 14.4543 2.70989 15.2825C-3.47213 19.4236 1.97042 28.5487 8.56655 25.0584C10.5483 23.9048 11.5984 21.7456 11.3913 19.5863C11.273 17.8855 9.86803 14.6762 10.7406 13.3303Z" fill="white"/>
</g>
</svg>
