<svg width="22" height="20" viewBox="0 0 22 20" fill="none" xmlns="http://www.w3.org/2000/svg">
<path d="M17.4912 19.981C19.9569 19.981 21.9558 18.0077 21.9558 15.5735C21.9558 13.1394 19.9569 11.1661 17.4912 11.1661C15.0254 11.1661 13.0266 13.1394 13.0266 15.5735C13.0266 18.0077 15.0254 19.981 17.4912 19.981Z" fill="#F2571F"/>
<path fill-rule="evenodd" clip-rule="evenodd" d="M8.42172 10.3185C9.01314 9.26528 11.7267 8.95618 12.898 8.40668C14.4519 7.7198 15.5188 6.18576 15.5304 4.41131C15.3448 -1.35849 7.01854 -1.51877 6.60107 4.22815C6.47351 5.72784 7.86509 8.37233 7.13451 9.60872C6.97216 9.87202 6.65905 10.2384 5.65016 10.6047C4.5369 11.0168 3.15691 11.1885 2.12483 11.8296C-2.7225 15.0351 1.545 22.0985 6.71703 19.3968C8.27096 18.5038 9.09431 16.8324 8.93196 15.161C8.83919 13.8445 7.73752 11.3603 8.42172 10.3185Z" fill="#F2571F"/>
</svg>
