<svg width="44" height="41" fill="none" xmlns="http://www.w3.org/2000/svg"><g clip-path="url(#clip0)" stroke="#242528" stroke-width="1.5" stroke-miterlimit="10"><path d="M22.15 13.845V7.683m14.803 27.051l-4.283-2.856M7.123 34.884l4.658-3.006"/><path d="M22.225 37.965c6.64 0 12.023-5.383 12.023-12.023S28.865 13.92 22.225 13.92s-12.022 5.383-12.022 12.022c0 6.64 5.383 12.023 12.022 12.023z" fill="#F9F8F7"/><path d="M22.15 7.683a3.381 3.381 0 100-6.762 3.381 3.381 0 000 6.762zm17.508 32.386a3.381 3.381 0 100-6.763 3.381 3.381 0 000 6.763zm-35.316 0a3.381 3.381 0 100-6.763 3.381 3.381 0 000 6.763z"/></g><defs><clipPath id="clip0"><path fill="#fff" d="M0 0h44v40.989H0z"/></clipPath></defs></svg>