<svg width="22" height="20" fill="none" xmlns="http://www.w3.org/2000/svg"><path d="M17.491 19.981c2.466 0 4.465-1.973 4.465-4.408 0-2.434-2-4.407-4.465-4.407-2.466 0-4.464 1.973-4.464 4.407 0 2.435 1.998 4.408 4.464 4.408z" fill="#F2571F"/><path fill-rule="evenodd" clip-rule="evenodd" d="M8.422 10.319c.591-1.054 3.305-1.363 4.476-1.912A4.399 4.399 0 0015.53 4.41c-.185-5.77-8.511-5.93-8.929-.183-.127 1.5 1.264 4.144.534 5.38-.163.264-.476.63-1.485.997-1.113.412-2.493.583-3.525 1.225-4.848 3.205-.58 10.269 4.592 7.567a4.4 4.4 0 002.215-4.236c-.093-1.316-1.194-3.8-.51-4.842z" fill="#F2571F"/></svg>