<svg width="540" height="90" fill="none" xmlns="http://www.w3.org/2000/svg"><path d="M161.652 35.932h5.834v22.642h31.89V35.932h5.768v52.15h-5.768V63.986h-31.89V88.08h-5.834V35.932zm50.523 34.92c0-10.628 7.16-18.154 17.237-18.154 10.078 0 17.238 7.526 17.238 18.154 0 10.693-7.159 18.285-17.238 18.285-10.077 0-17.237-7.591-17.237-18.285zm28.708 0c0-7.79-4.774-13.268-11.47-13.268-6.696 0-11.403 5.479-11.403 13.268 0 7.855 4.707 13.4 11.403 13.4 6.695 0 11.47-5.545 11.47-13.4zm11.999-17.097h5.702v6.205c2.453-4.357 6.564-7.262 12.266-7.262 6.099 0 10.012 2.641 11.669 7.856 2.784-4.82 7.425-7.856 13.259-7.856 8.288 0 12.598 5.017 12.598 14.523v20.86h-5.702V67.418c0-6.007-2.983-9.835-8.221-9.835-6.564 0-11.006 5.809-11.006 13.796v16.7h-5.702V67.42c0-6.007-2.917-9.835-8.154-9.835-6.63 0-11.006 5.809-11.006 13.796v16.7h-5.703V53.755zm61.871 17.097c0-10.628 7.159-18.154 17.37-18.154 8.089 0 15.249 6.008 15.249 17.56v2.507h-26.719c.465 6.866 4.642 11.618 11.338 11.618 5.104 0 8.552-3.036 9.282-5.94h5.635c-1.061 5.742-6.828 10.693-14.785 10.693-10.21 0-17.37-7.59-17.37-18.284zm26.917-2.707c-.265-6.337-4.309-10.561-9.746-10.561-6.365 0-10.343 4.159-11.205 10.561h20.951zm18.286 14.259v5.677h-5.703V35.932h5.703v23.5c2.453-4.224 6.431-6.733 11.404-6.733 9.083 0 15.58 7.525 15.58 18.087 0 10.76-6.497 18.35-15.58 18.35-4.973.067-8.951-2.507-11.404-6.732zm21.281-11.552c0-7.79-4.441-13.268-10.806-13.268-6.298 0-10.807 5.479-10.807 13.268 0 7.855 4.509 13.4 10.807 13.4 6.365 0 10.806-5.545 10.806-13.4zm10.479 0c0-10.628 7.16-18.154 17.238-18.154 10.077 0 17.237 7.526 17.237 18.154 0 10.693-7.159 18.285-17.237 18.285s-17.238-7.591-17.238-18.285zm28.707 0c0-7.79-4.773-13.268-11.469-13.268s-11.404 5.479-11.404 13.268c0 7.855 4.708 13.4 11.404 13.4s11.469-5.545 11.469-13.4zm41.6 17.229h-5.702v-6.205c-2.453 4.357-6.564 7.26-12.266 7.26-8.287 0-12.597-5.016-12.597-14.522V53.756h5.702v20.661c0 6.007 2.917 9.835 8.221 9.835 6.564 0 10.939-5.809 10.939-13.796v-16.7h5.702V88.08h.001zm8.22-34.326h5.703v6.205c2.453-4.357 6.564-7.262 12.265-7.262 8.354 0 12.597 5.017 12.597 14.523v20.86h-5.701V67.418c0-6.007-2.918-9.835-8.155-9.835-6.629 0-11.005 5.809-11.005 13.796v16.7h-5.703V53.755h-.001zm36.862 17.031c0-10.561 6.497-18.087 15.581-18.087 4.971 0 8.95 2.509 11.404 6.734v-23.5h5.701V88.08h-5.701v-5.677c-2.454 4.225-6.432 6.8-11.404 6.734-9.084-.001-15.581-7.592-15.581-18.352zm27.316.066c0-7.79-4.509-13.268-10.807-13.268-6.365 0-10.807 5.479-10.807 13.268 0 7.855 4.442 13.4 10.807 13.4 6.298 0 10.807-5.545 10.807-13.4zM143.568 88.054H1.468l-.216-52.097L70.34.207l61.16 34.805-2.754 4.798-58.53-33.308L6.815 39.306l.179 43.221h136.573v5.527z" fill="#fff"/></svg>