<svg width="28" height="26" fill="none" xmlns="http://www.w3.org/2000/svg"><g opacity=".15" fill="#fff"><path d="M22.306 25.814a5.694 5.694 0 100-11.388 5.694 5.694 0 000 11.388z"/><path fill-rule="evenodd" clip-rule="evenodd" d="M10.74 13.33c.755-1.36 4.216-1.76 5.71-2.47a5.685 5.685 0 003.356-5.16C19.57-1.755 8.95-1.962 8.419 5.462c-.163 1.938 1.612 5.354.68 6.951-.207.34-.606.814-1.893 1.287-1.42.533-3.18.754-4.496 1.583-6.182 4.14-.74 13.266 5.857 9.775a5.704 5.704 0 002.824-5.472c-.118-1.7-1.523-4.91-.65-6.256z"/></g></svg>