<svg width="108" height="17" fill="none" xmlns="http://www.w3.org/2000/svg"><g clip-path="url(#clip0)"><path fill-rule="evenodd" clip-rule="evenodd" d="M77.439 15.78h5.452a.587.587 0 00.587-.586v-1.676a.587.587 0 00-.588-.587h-4.563c-3.305 0-3.962-1.076-3.962-4.677 0-2.426.22-5.295 3.962-5.295h4.564a.587.587 0 00.587-.588V.807a.587.587 0 00-.587-.588h-5.452c-5.6 0-6.698 4.603-6.698 8.035 0 4.568 2.416 7.527 6.698 7.527zm-12.627-.585a.588.588 0 00.588.586h2.337a.588.588 0 00.588-.587V.806a.588.588 0 00-.588-.587H65.4a.588.588 0 00-.589.587v14.389zm-19.875 0a.586.586 0 00.586.586h2.104a.587.587 0 00.585-.59V4.316c0-.326.08-.338.177-.033l3.477 10.94a.852.852 0 00.764.558h2.11a.855.855 0 00.764-.557l3.477-10.94c.098-.308.177-.295.177.032V15.19a.588.588 0 00.588.59h1.952a.588.588 0 00.588-.587V.806a.585.585 0 00-.589-.587h-3.702a.868.868 0 00-.773.56l-3.426 10.388c-.102.309-.269.308-.371.004L49.931.774a.875.875 0 00-.776-.555h-3.629a.588.588 0 00-.589.587v14.389zm-9.882-1.825c3.513 0 4.282-2.192 4.282-5.325V8c0-3.288-.879-5.37-4.231-5.37-3.353 0-4.004 2.63-4.004 5.325V8c0 2.192.439 5.37 3.953 5.37zM35.06 16c-5.698 0-7.583-3.525-7.583-7.983C27.478 3.49 29.235 0 35.106 0c5.87 0 7.745 2.984 7.745 7.928 0 5.29-2.093 8.072-7.79 8.072zm-15.702-.22a.586.586 0 01-.588-.589V3.615a.588.588 0 00-.586-.59h-3.847a.587.587 0 01-.585-.588V.807a.586.586 0 01.584-.588h12.227a.587.587 0 01.585.589v1.63a.589.589 0 01-.588.588h-3.733a.586.586 0 00-.588.59V15.19a.59.59 0 01-.588.59h-2.293zm-18.96 0c-.323 0-.482-.244-.356-.54L6.217.76a.961.961 0 01.816-.54h2.239c.324 0 .69.244.816.54l6.174 14.48c.127.299-.03.54-.36.54h-2.44a.93.93 0 01-.803-.547L8.26 3.945c-.118-.302-.307-.3-.421 0L3.55 15.233a.918.918 0 01-.795.548H.4z" fill="#242528"/></g><path d="M104.339 16.381c2.022 0 3.661-1.617 3.661-3.613s-1.639-3.613-3.661-3.613c-2.021 0-3.66 1.617-3.66 3.613s1.639 3.613 3.66 3.613z" fill="#F2571F"/><path fill-rule="evenodd" clip-rule="evenodd" d="M96.904 8.46c.485-.864 2.71-1.117 3.67-1.568a3.605 3.605 0 002.158-3.275c-.152-4.73-6.978-4.862-7.32-.15-.105 1.229 1.036 3.397.437 4.41-.133.216-.39.517-1.217.817-.913.338-2.044.479-2.89 1.004-3.974 2.628-.475 8.42 3.765 6.204a3.607 3.607 0 001.816-3.472c-.076-1.08-.98-3.116-.418-3.97z" fill="#F2571F"/><defs><clipPath id="clip0"><path fill="#fff" d="M0 0h83.478v16H0z"/></clipPath></defs></svg>